<?xml version="1.0" encoding="UTF-8" standalone="no"?>
<!-- Created with Inkscape (http://www.inkscape.org/) -->

<svg
   xmlns:dc="http://purl.org/dc/elements/1.1/"
   xmlns:cc="http://creativecommons.org/ns#"
   xmlns:rdf="http://www.w3.org/1999/02/22-rdf-syntax-ns#"
   xmlns:svg="http://www.w3.org/2000/svg"
   xmlns="http://www.w3.org/2000/svg"
   version="1.2"
   width="744.09448"
   height="1052.3622"
   id="svg2">
  <defs
     id="defs4" />
  <metadata
     id="metadata7">
    <rdf:RDF>
      <cc:Work
         rdf:about="">
        <dc:format>image/svg+xml</dc:format>
        <dc:type
           rdf:resource="http://purl.org/dc/dcmitype/StillImage" />
        <dc:title></dc:title>
      </cc:Work>
    </rdf:RDF>
  </metadata>
  <g
     id="layer1">
    <path
       d="m 352.1952,371.17133 c -118.96855,0 -119.92244,-27.58819 -0.95393,-27.58819 -3e-5,20.72594 -2.02028,-1.03335 0.95393,27.58819 z"
       id="path2985"
       style="fill:#ff00ff;fill-opacity:1;stroke:none" />
    <path
       d="m 387.49289,344.59328 c 118.96855,0 119.92244,27.58819 0.95393,27.58819 3e-5,-20.72594 2.02028,1.03335 -0.95393,-27.58819 z"
       id="path2985-3"
       style="fill:#ff00ff;fill-opacity:1;stroke:none" />
    <path
       d="m 354.02964,338.08494 c 0,-118.96854 27.58819,-119.92243 27.58819,-0.95393 -20.72594,-3e-5 1.03335,-2.02028 -27.58819,0.95393 z"
       id="path2985-6"
       style="fill:#ff00ff;fill-opacity:1;stroke:none" />
    <path
       d="m 384.39185,376.66951 c 0,118.96855 -27.58819,119.92244 -27.58819,0.95393 20.72594,3e-5 -1.03335,2.02028 27.58819,-0.95393 z"
       id="path2985-3-7"
       style="fill:#ff00ff;fill-opacity:1;stroke:none" />
    <path
       d="m 204.80338,219.70677 c 3.80357,49.621 -55.01338,71.89805 -66.98732,74.95999 -3.37596,0.8633 0.58622,10.43733 0.58622,10.43733 0,0 78.02347,-17.5835 77.82353,-87.08589 -0.0111,-3.84887 -11.71659,-2.14902 -11.42243,1.68857 z"
       id="path3767"
       style="fill:#ffff00;fill-opacity:1;stroke:none" />
    <path
       d="m 225.10077,221.24242 c 11.83366,68.44371 -67.51849,91.22692 -83.86634,93.84791 -4.60914,0.73893 2.19004,14.36842 2.19004,14.36842 0,0 106.83523,-13.83551 97.43295,-109.02918 -0.52068,-5.27155 -16.67186,-4.48046 -15.75665,0.81285 z"
       id="path3767-3"
       style="fill:#ffff00;fill-opacity:1;stroke:none" />
    <path
       d="m 499.32162,229.45576 c -50.07603,-1.81059 -65.70728,-63.17794 -67.41554,-75.50434 -0.48164,-3.47534 -10.50884,-0.59478 -10.50884,-0.59478 0,0 8.76162,80.05217 78.32102,87.71831 3.85202,0.42452 3.47614,-11.47916 -0.39664,-11.61919 z"
       id="path3767-5"
       style="fill:#ffff00;fill-opacity:1;stroke:none" />
    <path
       d="m 495.48799,249.58938 c -69.8169,4.09316 -83.63041,-77.87684 -84.40247,-94.52942 -0.21764,-4.69504 -14.6234,0.56493 -14.6234,0.56493 0,0 1.7509,108.45398 98.0558,109.82094 5.33308,0.0757 6.36958,-16.17301 0.97007,-15.85645 z"
       id="path3767-3-3"
       style="fill:#ffff00;fill-opacity:1;stroke:none" />
    <path
       d="m 509.89603,495.77825 c -6.2398,-49.71873 51.82838,-74.98479 63.72156,-78.64683 3.35319,-1.0325 -1.09744,-10.46829 -1.09744,-10.46829 0,0 -77.61256,21.48036 -74.02948,91.36914 0.19843,3.87026 11.88794,1.59113 11.40536,-2.25402 z"
       id="path3767-5-5"
       style="fill:#ffff00;fill-opacity:1;stroke:none" />
    <path
       d="m 489.40825,495.22153 c -15.23159,-68.25798 63.46419,-95.03233 79.77768,-98.46375 4.59944,-0.96742 -2.9017,-14.34375 -2.9017,-14.34375 0,0 -106.77089,19.113 -92.68288,114.3917 0.78015,5.27625 16.98488,3.69474 15.8069,-1.5842 z"
       id="path3767-3-3-6"
       style="fill:#ffff00;fill-opacity:1;stroke:none" />
  </g>
</svg>
