<?xml version="1.0" encoding="UTF-8" standalone="no"?>
<!-- Created with Inkscape (http://www.inkscape.org/) -->

<svg
   xmlns:dc="http://purl.org/dc/elements/1.1/"
   xmlns:cc="http://creativecommons.org/ns#"
   xmlns:rdf="http://www.w3.org/1999/02/22-rdf-syntax-ns#"
   xmlns:svg="http://www.w3.org/2000/svg"
   xmlns="http://www.w3.org/2000/svg"
   version="1.2"
   width="1437.171"
   height="221.70612"
   id="svg2">
  <defs
     id="defs4" />
  <metadata
     id="metadata7">
    <rdf:RDF>
      <cc:Work
         rdf:about="">
        <dc:format>image/svg+xml</dc:format>
        <dc:type
           rdf:resource="http://purl.org/dc/dcmitype/StillImage" />
        <dc:title></dc:title>
      </cc:Work>
    </rdf:RDF>
  </metadata>
  <g
     transform="translate(482.08699,-348.52367)"
     id="layer1">
    <path
       d="m 410.71429,280.57648 a 35.357143,35.357143 0 1 1 -70.71429,0 35.357143,35.357143 0 1 1 70.71429,0 z"
       transform="matrix(2.5811464,0,0,2.5811464,-310.80693,-284.72333)"
       id="path2985"
       style="fill:#ffff00;fill-opacity:1;stroke:none" />
    <flowRoot
       transform="matrix(2.5811464,0,0,2.5811464,-272.08973,-240.47511)"
       id="flowRoot3757"
       xml:space="preserve"
       style="font-size:12px;font-style:normal;font-weight:normal;line-height:125%;letter-spacing:0px;word-spacing:0px;fill:#000000;fill-opacity:1;stroke:none;font-family:Sans"><flowRegion
         id="flowRegion3759"><rect
           width="184.28572"
           height="52.857143"
           x="345"
           y="275.21933"
           id="rect3761" /></flowRegion><flowPara
         id="flowPara3763"
         style="font-size:32px;font-style:italic;-inkscape-font-specification:Sans Italic">Listener</flowPara></flowRoot>    <path
       d="m -482.08699,435.52383 0,64.19215 33.49155,0 53.94961,31.14785 0,-128.83154 -54.96444,31.73378 z"
       id="path3765"
       style="fill:#ff00ff;fill-opacity:1;stroke:none" />
    <path
       d="m -380.21687,396.45038 c 50.83115,48.79889 9.75266,127.80946 0,142.33906 -2.74969,4.09652 10.46612,10.46614 10.46612,10.46614 0,0 65.78397,-92.17598 0,-165.36454 -3.64295,-4.05298 -14.3973,8.78534 -10.46612,12.55934 z"
       id="path3767"
       style="fill:#ff00ff;fill-opacity:1;stroke:none" />
    <path
       d="m -357.33909,378.92183 c 77.06748,61.09488 14.78646,160.01401 0,178.20472 -4.16893,5.12866 15.8682,13.10324 15.8682,13.10324 0,0 99.73812,-115.40185 0,-207.03193 -5.5232,-5.07419 -21.82846,10.99901 -15.8682,15.72397 z"
       id="path3767-3"
       style="fill:#ff00ff;fill-opacity:1;stroke:none" />
    <flowRoot
       transform="matrix(2.5811464,0,0,2.5811464,-1330.6063,-228.19443)"
       id="flowRoot3757-3"
       xml:space="preserve"
       style="font-size:12px;font-style:normal;font-weight:normal;line-height:125%;letter-spacing:0px;word-spacing:0px;fill:#000000;fill-opacity:1;stroke:none;font-family:Sans"><flowRegion
         id="flowRegion3759-5"><rect
           width="267.14285"
           height="61.428577"
           x="345"
           y="275.21933"
           id="rect3761-6" /></flowRegion><flowPara
         id="flowPara3763-2"
         style="font-size:23.24548531px;font-style:italic;-inkscape-font-specification:Sans Italic">Audio source</flowPara></flowRoot>    <path
       d="m 33.627584,426.0211 299.999716,0 -32.69643,-56.63187 145.4407,83.97023 -130.83023,94.93108 19.08752,-52.29498 -302.430134,0 z"
       id="path3045"
       style="fill:#01afd1;fill-opacity:0.94117647;stroke:none" />
    <flowRoot
       transform="matrix(2.5811464,0,0,2.5811464,-823.09954,-245.50401)"
       id="flowRoot3757-3-6"
       xml:space="preserve"
       style="font-size:12px;font-style:normal;font-weight:normal;line-height:125%;letter-spacing:0px;word-spacing:0px;fill:#000000;fill-opacity:1;stroke:none;font-family:Sans"><flowRegion
         id="flowRegion3759-5-7"><rect
           width="267.14285"
           height="61.428577"
           x="345"
           y="275.21933"
           id="rect3761-6-5" /></flowRegion><flowPara
         id="flowPara3763-2-3"
         style="font-size:22px;font-style:italic;-inkscape-font-specification:Sans Italic">Manipulation</flowPara></flowRoot>  </g>
</svg>
