<?xml version="1.0" encoding="UTF-8" standalone="no"?>
<!-- Created with Inkscape (http://www.inkscape.org/) -->

<svg
   xmlns:dc="http://purl.org/dc/elements/1.1/"
   xmlns:cc="http://creativecommons.org/ns#"
   xmlns:rdf="http://www.w3.org/1999/02/22-rdf-syntax-ns#"
   xmlns:svg="http://www.w3.org/2000/svg"
   xmlns="http://www.w3.org/2000/svg"
   version="1.2"
   width="1379.0776"
   height="445.87485"
   id="svg2">
  <defs
     id="defs4" />
  <metadata
     id="metadata7">
    <rdf:RDF>
      <cc:Work
         rdf:about="">
        <dc:format>image/svg+xml</dc:format>
        <dc:type
           rdf:resource="http://purl.org/dc/dcmitype/StillImage" />
        <dc:title></dc:title>
      </cc:Work>
    </rdf:RDF>
  </metadata>
  <g
     transform="translate(403.38041,289.93835)"
     id="layer1">
    <flowRoot
       transform="translate(-482.08699,348.52367)"
       id="flowRoot3928"
       xml:space="preserve"
       style="font-size:12px;font-style:normal;font-weight:normal;line-height:125%;letter-spacing:0px;word-spacing:0px;fill:#000000;fill-opacity:1;stroke:none;font-family:Sans"><flowRegion
         id="flowRegion3930"><rect
           width="584.28571"
           height="450"
           x="1030"
           y="-145.43674"
           id="rect3932" /></flowRegion><flowPara
         id="flowPara3934"></flowPara></flowRoot>    <flowRoot
       transform="translate(-482.08699,348.52367)"
       id="flowRoot3985"
       xml:space="preserve"
       style="font-size:12px;font-style:normal;font-weight:normal;line-height:125%;letter-spacing:0px;word-spacing:0px;fill:#000000;fill-opacity:1;stroke:none;font-family:Sans"><flowRegion
         id="flowRegion3987"><rect
           width="754.28571"
           height="254.28572"
           x="338.57144"
           y="-718.29388"
           id="rect3989" /></flowRegion><flowPara
         id="flowPara3991"></flowPara></flowRoot>    <path
       d="m 72.935578,270.26116 442.797102,0 -48.25966,-27.97359 214.66927,41.4775 -193.10433,46.89168 28.17302,-25.83136 -446.384392,0 z"
       id="path3045-2"
       style="fill:#01afd1;fill-opacity:0.94117647;stroke:none" />
    <flowRoot
       transform="matrix(2.2544997,0,0,2.5811464,-681.22392,-496.89138)"
       id="flowRoot3757-3-6-3"
       xml:space="preserve"
       style="font-size:12px;font-style:normal;font-weight:normal;line-height:125%;letter-spacing:0px;word-spacing:0px;fill:#000000;fill-opacity:1;stroke:none;font-family:Sans"><flowRegion
         id="flowRegion3759-5-7-7"><rect
           width="267.14285"
           height="61.428577"
           x="345"
           y="275.21933"
           id="rect3761-6-5-5" /></flowRegion><flowPara
         id="flowPara3763-2-3-9"
         style="font-size:22px;font-style:italic;-inkscape-font-specification:Sans Italic">Move</flowPara></flowRoot>    <path
       d="m -243.92558,282.37878 0,64.19215 33.49155,0 53.94961,31.14785 0,-128.83154 -54.96444,31.73378 z"
       id="path3765"
       style="fill:#ff00ff;fill-opacity:1;stroke:none" />
    <path
       d="m -142.05546,243.30533 c 50.831147,48.79889 9.75266,127.80946 0,142.33906 -2.74969,4.09652 10.46612,10.46614 10.46612,10.46614 0,0 65.783967,-92.17598 0,-165.36454 -3.64295,-4.05298 -14.3973,8.78534 -10.46612,12.55934 z"
       id="path3767"
       style="fill:#ff00ff;fill-opacity:1;stroke:none" />
    <path
       d="m -120.49377,225.77678 c 77.067477,61.09488 14.78646,160.01401 0,178.20472 -4.16893,5.12866 15.8682,13.10324 15.8682,13.10324 0,0 99.7381174,-115.40185 0,-207.03193 -5.5232,-5.07419 -21.82846,10.99901 -15.8682,15.72397 z"
       id="path3767-3"
       style="fill:#ff00ff;fill-opacity:1;stroke:none" />
    <flowRoot
       transform="matrix(2.5811464,0,0,2.5811464,-1092.4449,-381.33948)"
       id="flowRoot3757-3"
       xml:space="preserve"
       style="font-size:12px;font-style:normal;font-weight:normal;line-height:125%;letter-spacing:0px;word-spacing:0px;fill:#000000;fill-opacity:1;stroke:none;font-family:Sans"><flowRegion
         id="flowRegion3759-5"><rect
           width="267.14285"
           height="61.428577"
           x="345"
           y="275.21933"
           id="rect3761-6" /></flowRegion><flowPara
         id="flowPara3763-2"
         style="font-size:23.24548531px;font-style:italic;-inkscape-font-specification:Sans Italic">Old position</flowPara></flowRoot>    <path
       d="m 720.96616,266.6645 0,64.19215 33.49155,0 53.94961,31.14785 0,-128.83154 -54.96444,31.73378 z"
       id="path3765-3"
       style="fill:#ff00ff;fill-opacity:1;stroke:none" />
    <path
       d="m 822.83628,227.59105 c 50.83114,48.79889 9.75266,127.80946 0,142.33906 -2.74969,4.09652 10.46612,10.46614 10.46612,10.46614 0,0 65.78392,-92.17598 0,-165.36454 -3.64295,-4.05298 -14.3973,8.78534 -10.46612,12.55934 z"
       id="path3767-1"
       style="fill:#ff00ff;fill-opacity:1;stroke:none" />
    <path
       d="m 844.39792,210.0625 c 77.0675,61.09488 14.7865,160.01401 0,178.20472 -4.16888,5.12866 15.8682,13.10324 15.8682,13.10324 0,0 99.7382,-115.40185 0,-207.03193 -5.5232,-5.07419 -21.82841,10.99901 -15.8682,15.72397 z"
       id="path3767-3-9"
       style="fill:#ff00ff;fill-opacity:1;stroke:none" />
    <flowRoot
       transform="matrix(2.5811464,0,0,2.5811464,-127.55314,-397.05376)"
       id="flowRoot3757-3-4"
       xml:space="preserve"
       style="font-size:12px;font-style:normal;font-weight:normal;line-height:125%;letter-spacing:0px;word-spacing:0px;fill:#000000;fill-opacity:1;stroke:none;font-family:Sans"><flowRegion
         id="flowRegion3759-5-78"><rect
           width="267.14285"
           height="61.428577"
           x="345"
           y="275.21933"
           id="rect3761-6-4" /></flowRegion><flowPara
         id="flowPara4289"
         style="font-size:23.24548531px;font-style:italic;-inkscape-font-specification:Sans Italic">New position</flowPara></flowRoot>  </g>
</svg>
