<?xml version="1.0" encoding="UTF-8" standalone="no"?>
<!-- Created with Inkscape (http://www.inkscape.org/) -->

<svg
   xmlns:dc="http://purl.org/dc/elements/1.1/"
   xmlns:cc="http://creativecommons.org/ns#"
   xmlns:rdf="http://www.w3.org/1999/02/22-rdf-syntax-ns#"
   xmlns:svg="http://www.w3.org/2000/svg"
   xmlns="http://www.w3.org/2000/svg"
   xmlns:sodipodi="http://sodipodi.sourceforge.net/DTD/sodipodi-0.dtd"
   xmlns:inkscape="http://www.inkscape.org/namespaces/inkscape"
   width="744.09448819"
   height="1052.3622047"
   id="svg2"
   version="1.1"
   inkscape:version="0.48.4 r9939"
   sodipodi:docname="sources.svg">
  <defs
     id="defs4" />
  <sodipodi:namedview
     id="base"
     pagecolor="#ffffff"
     bordercolor="#666666"
     borderopacity="1.0"
     inkscape:pageopacity="0.0"
     inkscape:pageshadow="2"
     inkscape:zoom="1.4"
     inkscape:cx="283.53489"
     inkscape:cy="747.04458"
     inkscape:document-units="px"
     inkscape:current-layer="layer1"
     showgrid="false"
     inkscape:window-width="1920"
     inkscape:window-height="1025"
     inkscape:window-x="1280"
     inkscape:window-y="30"
     inkscape:window-maximized="1" />
  <metadata
     id="metadata7">
    <rdf:RDF>
      <cc:Work
         rdf:about="">
        <dc:format>image/svg+xml</dc:format>
        <dc:type
           rdf:resource="http://purl.org/dc/dcmitype/StillImage" />
        <dc:title></dc:title>
      </cc:Work>
    </rdf:RDF>
  </metadata>
  <g
     inkscape:label="Layer 1"
     inkscape:groupmode="layer"
     id="layer1">
    <path
       sodipodi:type="arc"
       style="fill:#ffff00;fill-opacity:1;stroke:none"
       id="path2985"
       sodipodi:cx="375.35715"
       sodipodi:cy="280.57648"
       sodipodi:rx="35.357143"
       sodipodi:ry="35.357143"
       d="m 410.71429,280.57648 a 35.357143,35.357143 0 1 1 -70.71429,0 35.357143,35.357143 0 1 1 70.71429,0 z"
       transform="translate(-0.71428572,-0.71428572)" />
    <flowRoot
       xml:space="preserve"
       id="flowRoot3757"
       style="font-size:12px;font-style:normal;font-weight:normal;line-height:125%;letter-spacing:0px;word-spacing:0px;fill:#000000;fill-opacity:1;stroke:none;font-family:Sans"
       transform="translate(14.285714,16.428571)"><flowRegion
         id="flowRegion3759"><rect
           id="rect3761"
           width="184.28572"
           height="52.857143"
           x="345"
           y="275.21933" /></flowRegion><flowPara
         id="flowPara3763"
         style="font-size:32px;font-style:italic;-inkscape-font-specification:Sans Italic">Listener</flowPara></flowRoot>    <path
       style="fill:#ff00ff;fill-opacity:1;stroke:none"
       d="m 203.57143,146.32283 0,17.35447 9.05451,0 14.58538,8.42088 0,-34.82985 -14.85975,8.57928 z"
       id="path3765"
       inkscape:connector-curvature="0" />
    <path
       style="fill:#ff00ff;fill-opacity:1;stroke:none"
       d="m 231.11221,135.75925 c 13.7423,13.19287 2.63665,34.55353 0,38.48163 -0.74338,1.1075 2.82954,2.82954 2.82954,2.82954 0,0 17.78482,-24.91995 0,-44.70661 -0.98488,-1.09573 -3.89234,2.37513 -2.82954,3.39544 z"
       id="path3767"
       inkscape:connector-curvature="0"
       sodipodi:nodetypes="sscss" />
    <path
       style="fill:#ff00ff;fill-opacity:1;stroke:none"
       d="m 237.29726,131.02037 c 20.83534,16.51712 3.99755,43.26009 0,48.17798 -1.12707,1.38655 4.29,3.54249 4.29,3.54249 0,0 26.96439,-31.19911 0,-55.97147 -1.49321,-1.37182 -5.90136,2.9736 -4.29,4.251 z"
       id="path3767-3"
       inkscape:connector-curvature="0"
       sodipodi:nodetypes="sscss" />
    <path
       style="fill:#01afd1;fill-opacity:0.94117647;stroke:none"
       d="m 266.42857,354.77651 0,17.35447 9.05451,0 14.58538,8.42088 0,-34.82985 -14.85975,8.57928 z"
       id="path3765-6"
       inkscape:connector-curvature="0" />
    <path
       style="fill:#01afd1;fill-opacity:0.94117647;stroke:none"
       d="m 293.96935,344.21293 c 13.7423,13.19287 2.63665,34.55353 0,38.48163 -0.74338,1.1075 2.82954,2.82954 2.82954,2.82954 0,0 17.78482,-24.91995 0,-44.70661 -0.98488,-1.09573 -3.89234,2.37513 -2.82954,3.39544 z"
       id="path3767-7"
       inkscape:connector-curvature="0"
       sodipodi:nodetypes="sscss" />
    <path
       style="fill:#01afd1;fill-opacity:0.94117647;stroke:none"
       d="m 300.1544,339.47405 c 20.83534,16.51712 3.99755,43.26009 0,48.17798 -1.12707,1.38655 4.29,3.54249 4.29,3.54249 0,0 26.96439,-31.19911 0,-55.97147 -1.49321,-1.37182 -5.90136,2.9736 -4.29,4.251 z"
       id="path3767-3-5"
       inkscape:connector-curvature="0"
       sodipodi:nodetypes="sscss" />
    <flowRoot
       xml:space="preserve"
       id="flowRoot3757-3"
       style="font-size:12px;font-style:normal;font-weight:normal;line-height:125%;letter-spacing:0px;word-spacing:0px;fill:#000000;fill-opacity:1;stroke:none;font-family:Sans"
       transform="translate(-123.50558,-114.96571)"><flowRegion
         id="flowRegion3759-5"><rect
           id="rect3761-6"
           width="267.14285"
           height="61.428577"
           x="345"
           y="275.21933" /></flowRegion><flowPara
         id="flowPara3763-2"
         style="font-size:22px;font-style:italic;-inkscape-font-specification:Sans Italic">Audio source</flowPara></flowRoot>    <path
       style="fill:#ff00ff;fill-opacity:1;stroke:none"
       d="m 504.24854,234.06222 0,17.35447 9.05451,0 14.58538,8.42088 0,-34.82985 -14.85975,8.57928 z"
       id="path3765-9"
       inkscape:connector-curvature="0" />
    <path
       style="fill:#ff00ff;fill-opacity:1;stroke:none"
       d="m 531.78932,223.49864 c 13.7423,13.19287 2.63665,34.55353 0,38.48163 -0.74338,1.1075 2.82954,2.82954 2.82954,2.82954 0,0 17.78482,-24.91995 0,-44.70661 -0.98488,-1.09573 -3.89234,2.37513 -2.82954,3.39544 z"
       id="path3767-1"
       inkscape:connector-curvature="0"
       sodipodi:nodetypes="sscss" />
    <path
       style="fill:#ff00ff;fill-opacity:1;stroke:none"
       d="m 537.97437,218.75976 c 20.83534,16.51712 3.99755,43.26009 0,48.17798 -1.12707,1.38655 4.29,3.54249 4.29,3.54249 0,0 26.96439,-31.19911 0,-55.97147 -1.49321,-1.37182 -5.90136,2.9736 -4.29,4.251 z"
       id="path3767-3-2"
       inkscape:connector-curvature="0"
       sodipodi:nodetypes="sscss" />
    <flowRoot
       xml:space="preserve"
       id="flowRoot3757-3-7"
       style="font-size:12px;font-style:normal;font-weight:normal;line-height:125%;letter-spacing:0px;word-spacing:0px;fill:#000000;fill-opacity:1;stroke:none;font-family:Sans"
       transform="translate(177.17153,-27.226321)"><flowRegion
         id="flowRegion3759-5-0"><rect
           id="rect3761-6-9"
           width="267.14285"
           height="61.428577"
           x="345"
           y="275.21933" /></flowRegion><flowPara
         id="flowPara3763-2-3"
         style="font-size:22px;font-style:italic;-inkscape-font-specification:Sans Italic">Audio source</flowPara></flowRoot>    <flowRoot
       xml:space="preserve"
       id="flowRoot3757-3-6"
       style="font-size:12px;font-style:normal;font-weight:normal;line-height:125%;letter-spacing:0px;word-spacing:0px;fill:#000000;fill-opacity:1;stroke:none;font-family:Sans"
       transform="translate(-59.061665,94.130896)"><flowRegion
         id="flowRegion3759-5-06"><rect
           id="rect3761-6-2"
           width="267.14285"
           height="61.428577"
           x="345"
           y="275.21933" /></flowRegion><flowPara
         style="font-size:22px;font-style:italic;-inkscape-font-specification:Sans Italic"
         id="flowPara3905">Moving audio</flowPara></flowRoot>  </g>
</svg>
